<svg width="29" height="29" viewBox="0 0 29 29" fill="none" xmlns="http://www.w3.org/2000/svg">
<path d="M14.4855 0C6.4815 0 0 6.496 0 14.5C0 22.504 6.4815 29 14.4855 29C22.504 29 29 22.504 29 14.5C29 6.496 22.504 0 14.4855 0ZM14.5 26.1C8.091 26.1 2.9 20.909 2.9 14.5C2.9 8.091 8.091 2.9 14.5 2.9C20.909 2.9 26.1 8.091 26.1 14.5C26.1 20.909 20.909 26.1 14.5 26.1ZM14.181 7.25H14.094C13.514 7.25 13.05 7.714 13.05 8.294V15.138C13.05 15.6455 13.311 16.124 13.7605 16.385L19.778 19.9955C20.271 20.2855 20.909 20.1405 21.199 19.6475C21.5035 19.1545 21.344 18.502 20.8365 18.212L15.225 14.877V8.294C15.225 7.714 14.761 7.25 14.181 7.25Z" fill="white"/>
</svg>
