<svg width="35" height="34" viewBox="0 0 35 34" fill="none" xmlns="http://www.w3.org/2000/svg">
<path d="M14.7587 2.43679C15.6216 -0.218749 19.3784 -0.218749 20.2413 2.43679L22.3535 8.93743C22.7393 10.125 23.846 10.9291 25.0947 10.9291L31.9299 10.9291C34.7221 10.9291 35.8831 14.5021 33.6241 16.1433L28.0944 20.1609C27.0841 20.8949 26.6614 22.1959 27.0473 23.3835L29.1595 29.8841C30.0223 32.5397 26.9829 34.7479 24.724 33.1067L19.1942 29.0891C18.184 28.3551 16.816 28.3551 15.8058 29.0891L10.276 33.1067C8.01709 34.7479 4.9777 32.5397 5.84054 29.8841L7.95272 23.3835C8.3386 22.1959 7.91588 20.8949 6.90565 20.1609L1.37588 16.1433C-0.883059 14.5021 0.277883 10.9291 3.07009 10.9291L9.90526 10.9291C11.154 10.9291 12.2607 10.125 12.6465 8.93743L14.7587 2.43679Z" fill="white"/>
</svg>
